<?xml version="1.0" encoding="UTF-8"?>
<svg
  width="1600"
  height="900"
  viewBox="0 0 1600 900"
  xmlns="http://www.w3.org/2000/svg"
>
  <defs>
    <linearGradient id="engineBg" x1="0%" y1="0%" x2="100%" y2="100%">
      <stop offset="0%" stop-color="#050814"/>
      <stop offset="50%" stop-color="#02040c"/>
      <stop offset="100%" stop-color="#000000"/>
    </linearGradient>

    <linearGradient id="engineLines" x1="0%" y1="0%" x2="100%" y2="0%">
      <stop offset="0%" stop-color="#00f5ff" stop-opacity="0.18"/>
      <stop offset="50%" stop-color="#3cf7a8" stop-opacity="0.14"/>
      <stop offset="100%" stop-color="#ffd94a" stop-opacity="0.12"/>
    </linearGradient>

    <radialGradient id="engineNodes" cx="50%" cy="50%" r="50%">
      <stop offset="0%" stop-color="#00f5ff" stop-opacity="0.85"/>
      <stop offset="100%" stop-color="#00f5ff" stop-opacity="0"/>
    </radialGradient>

    <radialGradient id="engineOverlay" cx="50%" cy="50%" r="55%">
      <stop offset="0%" stop-color="#02040a" stop-opacity="0.85"/>
      <stop offset="100%" stop-color="#02040a" stop-opacity="0.95"/>
    </radialGradient>
  </defs>

  <rect x="0" y="0" width="1600" height="900" fill="url(#engineBg)" />

  <g stroke="url(#engineLines)" stroke-width="0.7" opacity="0.7">
    <path d="M100 0 L 900 900" />
    <path d="M300 0 L 1100 900" />
    <path d="M500 0 L 1300 900" />
    <path d="M700 0 L 1500 900" />
    <path d="M900 0 L 1700 900" />
    <path d="M0 200 L 800 900" />
    <path d="M0 400 L 600 900" />
    <path d="M200 0 L 1000 900" />
    <path d="M400 0 L 1200 900" />
    <path d="M600 0 L 1400 900" />
  </g>

  <g fill="url(#engineNodes)" opacity="0.35">
    <circle cx="400" cy="260" r="18"/>
    <circle cx="720" cy="360" r="18"/>
    <circle cx="1040" cy="280" r="18"/>
    <circle cx="560" cy="540" r="18"/>
    <circle cx="880" cy="620" r="18"/>
    <circle cx="1200" cy="520" r="18"/>
  </g>

  <rect x="0" y="0" width="1600" height="900" fill="url(#engineOverlay)"/>
</svg>
