<?xml version="1.0" encoding="UTF-8"?>
<svg
  width="256"
  height="256"
  viewBox="0 0 256 256"
  xmlns="http://www.w3.org/2000/svg"
>
  <defs>
    <radialGradient id="bgHalo" cx="50%" cy="40%" r="60%">
      <stop offset="0%" stop-color="#060b18" stop-opacity="1"/>
      <stop offset="100%" stop-color="#000000" stop-opacity="0"/>
    </radialGradient>

    <linearGradient id="qRing" x1="0%" y1="0%" x2="100%" y2="100%">
      <stop offset="0%" stop-color="#00f5ff"/>
      <stop offset="45%" stop-color="#3cf7a8"/>
      <stop offset="100%" stop-color="#ffd94a"/>
    </linearGradient>

    <linearGradient id="shackle" x1="0%" y1="0%" x2="0%" y2="100%">
      <stop offset="0%" stop-color="#ffd94a"/>
      <stop offset="100%" stop-color="#ff7b3b"/>
    </linearGradient>

    <radialGradient id="waveRing" cx="50%" cy="50%" r="50%">
      <stop offset="0%" stop-color="#ffffff" stop-opacity="0.15"/>
      <stop offset="35%" stop-color="#ffffff" stop-opacity="0.0"/>
      <stop offset="70%" stop-color="#00f5ff" stop-opacity="0.35"/>
      <stop offset="100%" stop-color="#000000" stop-opacity="0"/>
    </radialGradient>
  </defs>

  <rect x="0" y="0" width="256" height="256" fill="#000000"/>
  <circle cx="128" cy="132" r="118" fill="url(#bgHalo)" />

  <circle
    cx="128" cy="140" r="82"
    fill="none"
    stroke="url(#waveRing)"
    stroke-width="9"
  />

  <path
    d="M88 88
       C 88 64, 106 46, 128 46
       C 150 46, 168 64, 168 88
       L 168 104
       C 168 108, 165 112, 160 112
       C 155 112, 152 108, 152 104
       L 152 88
       C 152 73, 141 62, 128 62
       C 115 62, 104 73, 104 88
       L 104 104
       C 104 108, 101 112, 96 112
       C 91 112, 88 108, 88 104
       Z"
    fill="url(#shackle)"
  />

  <circle
    cx="128" cy="140"
    r="52"
    fill="none"
    stroke="url(#qRing)"
    stroke-width="16"
    stroke-linecap="round"
  />

  <circle cx="128" cy="140" r="32" fill="#000000"/>

  <path
    d="M154 164
       L182 188"
    fill="none"
    stroke="url(#qRing)"
    stroke-width="10"
    stroke-linecap="round"
  />

  <circle cx="128" cy="140" r="6" fill="#ffffff"/>
</svg>
